<svg width="140" height="140" viewBox="0 0 140 140" fill="none" xmlns="http://www.w3.org/2000/svg">
<circle cx="123" cy="90" r="9" fill="#A9B1B3"/>
<circle cx="39" cy="109" r="20" fill="url(#paint0_radial_1_2427)"/>
<g clip-path="url(#clip0_1_2427)">
<circle cx="70" cy="70" r="40" fill="#58C19B"/>
<g clip-path="url(#clip1_1_2427)">
<path d="M67.6864 79.8744C67.1934 79.8748 66.7051 79.778 66.2495 79.5894C65.794 79.4009 65.38 79.1244 65.0314 78.7757L57.9364 71.8401C57.5809 71.492 57.3782 71.0169 57.3729 70.5193C57.3676 70.0218 57.5602 69.5425 57.9083 69.1869C58.2564 68.8314 58.7315 68.6287 59.2291 68.6234C59.7266 68.6181 60.2059 68.8107 60.5614 69.1588L67.6733 76.1094L80.4346 63.5469C80.7944 63.2303 81.2619 63.0635 81.7409 63.0808C82.22 63.0982 82.6741 63.2983 83.0102 63.6401C83.3462 63.9819 83.5386 64.4394 83.5478 64.9187C83.557 65.3979 83.3823 65.8625 83.0596 66.2169L70.3227 78.7926C69.976 79.1374 69.5647 79.4104 69.1123 79.5961C68.66 79.7817 68.1754 79.8763 67.6864 79.8744ZM92.9989 83.6244V71.1369C93.0689 65.3572 90.9498 59.7649 87.067 55.4829C83.1843 51.2009 77.8255 48.5463 72.0664 48.0519C68.852 47.827 65.6268 48.2952 62.609 49.4247C59.5912 50.5543 56.8512 52.3188 54.5744 54.599C52.2976 56.8791 50.5371 59.6217 49.4121 62.6412C48.287 65.6607 47.8237 68.8866 48.0533 72.1007C48.8821 84.0144 59.4027 92.9994 72.5296 92.9994H83.6239C86.1094 92.9965 88.4923 92.0078 90.2498 90.2503C92.0073 88.4928 92.996 86.1099 92.9989 83.6244ZM71.8114 51.7944C76.6236 52.2201 81.0963 54.4511 84.331 58.0392C87.5657 61.6273 89.3227 66.3066 89.2489 71.1369V83.6244C89.2489 85.1163 88.6563 86.547 87.6014 87.6019C86.5465 88.6568 85.1158 89.2494 83.6239 89.2494H72.5296C61.2158 89.2494 52.4989 81.9369 51.7958 71.8419C51.6112 69.2705 51.9589 66.6887 52.8171 64.2577C53.6753 61.8267 55.0256 59.5988 56.7836 57.7132C58.5417 55.8276 60.6697 54.3248 63.0347 53.2987C65.3997 52.2725 67.9509 51.7451 70.5289 51.7494C70.9546 51.7494 71.3839 51.7663 71.8114 51.7944Z" fill="white"/>
</g>
</g>
<circle cx="26" cy="22" r="13" fill="#0E2B4C"/>
<circle cx="113.5" cy="114.5" r="4.5" fill="#F1F7FC"/>
<defs>
<radialGradient id="paint0_radial_1_2427" cx="0" cy="0" r="1" gradientUnits="userSpaceOnUse" gradientTransform="translate(19 89) rotate(45.1512) scale(56.4199 44.8949)">
<stop stop-color="#58C19B"/>
<stop offset="1" stop-color="#225186"/>
</radialGradient>
<clipPath id="clip0_1_2427">
<rect width="80" height="80" fill="white" transform="translate(30 30)"/>
</clipPath>
<clipPath id="clip1_1_2427">
<rect width="45" height="45" fill="white" transform="translate(48 48)"/>
</clipPath>
</defs>
</svg>
