<svg width="30" height="30" viewBox="0 0 30 30" fill="none" xmlns="http://www.w3.org/2000/svg">
<path d="M14.2264 2.17347C12.2166 3.568 10.5643 4.45277 8.77719 5.0973C7.44126 5.57777 5.74204 5.94105 4.55258 6.01137C3.8143 6.05238 3.50376 6.15199 3.29282 6.43324L3.13462 6.63832L3.11704 11.7418C3.09946 16.9098 3.11704 17.5778 3.31626 18.5621C4.05454 22.2125 6.41001 25.2594 9.74399 26.8649C10.8573 27.4039 11.9413 27.7614 13.1541 27.9899C13.7987 28.1129 15.7791 28.1598 16.5057 28.0719C21.3924 27.4743 25.3358 24.0055 26.5428 19.2477C26.8885 17.8942 26.9002 17.5954 26.8827 11.8649L26.8651 6.65004L26.7245 6.45082C26.5194 6.16371 26.2088 6.05238 25.4706 6.01137C23.7655 5.9059 21.7967 5.39613 19.951 4.57582C18.7616 4.04848 17.7245 3.4684 16.4237 2.60121C15.3397 1.8805 15.328 1.87465 14.994 1.87465C14.6834 1.87465 14.6249 1.89808 14.2264 2.17347ZM15.6561 4.44105C18.451 6.29262 21.5213 7.48793 24.4217 7.85707L24.9666 7.92738L24.9432 12.7965C24.9256 17.5895 24.9198 17.6774 24.7909 18.2457C24.3045 20.4137 23.4256 21.9957 21.9022 23.4723C20.5663 24.7614 18.9491 25.6168 17.0741 26.0211C16.242 26.2028 14.5604 26.2438 13.6815 26.1032C12.1991 25.8746 10.6405 25.2653 9.42173 24.4508C7.2479 22.9977 5.75962 20.7653 5.20297 18.1227C5.07407 17.5016 5.06821 17.4196 5.05063 12.7086L5.03305 7.92738L5.60727 7.85121C8.29672 7.52308 11.1971 6.42738 13.9276 4.71644C14.3729 4.43519 14.7772 4.17152 14.8241 4.12465C14.8709 4.07777 14.9413 4.04261 14.9764 4.04261C15.0174 4.04261 15.3221 4.22426 15.6561 4.44105Z" fill="#58C19B"/>
<path d="M14.5016 8.4901C14.2555 8.63658 14.2613 8.63072 13.0778 10.4647L12.0113 12.1053L10.066 12.621C8.99377 12.9081 8.03869 13.1835 7.93908 13.2362C7.64611 13.4003 7.49963 13.6815 7.49963 14.0624C7.49963 14.4784 7.45861 14.4139 8.93517 16.242C9.57384 17.0213 10.1129 17.6952 10.1422 17.7245C10.1656 17.7596 10.1363 18.7206 10.0778 19.8631L9.96056 21.9432L10.0953 22.201C10.2653 22.5526 10.4703 22.6874 10.8512 22.7167C11.1324 22.7401 11.3258 22.6815 13.0836 22.0018L15.0113 21.2635L16.9215 22.0018C18.6793 22.6815 18.861 22.7401 19.1481 22.7167C19.5289 22.6874 19.734 22.5526 19.9039 22.201L20.0387 21.9432L19.9215 19.8631C19.8629 18.7206 19.8336 17.7596 19.857 17.7245C19.8863 17.6952 20.4254 17.0213 21.0641 16.242C22.5406 14.4198 22.4996 14.4784 22.4996 14.0682C22.4996 13.6932 22.3649 13.4178 22.0953 13.2538C22.0074 13.201 21.0406 12.9198 19.9567 12.6268L17.9879 12.0995L16.9215 10.4588C15.7848 8.70103 15.6969 8.5897 15.4567 8.4608C15.2281 8.34361 14.7125 8.35533 14.5016 8.4901ZM15.7906 12.3104C16.2125 12.9549 16.5992 13.535 16.6578 13.5995C16.8336 13.787 17.0387 13.8631 18.4684 14.244C19.6988 14.5721 19.8512 14.6249 19.7809 14.7069C19.2477 15.3338 17.9703 16.9745 17.9176 17.0975C17.8766 17.2088 17.8766 17.6952 17.9293 18.7674C17.9703 19.5995 17.9938 20.285 17.982 20.2967C17.9703 20.3085 17.3551 20.0858 16.611 19.7987C15.6324 19.4237 15.193 19.2831 14.9996 19.2831C14.8063 19.2831 14.3668 19.4237 13.3883 19.7987C12.65 20.0858 12.0289 20.3085 12.0172 20.2967C12.0055 20.285 12.0289 19.6053 12.0699 18.785C12.1227 17.7069 12.1285 17.244 12.0817 17.1151C12.0348 16.9745 10.9332 15.5565 10.2184 14.7069C10.1481 14.6249 10.3004 14.5721 11.5309 14.244C12.9606 13.8631 13.1656 13.787 13.3414 13.5995C13.4 13.535 13.7926 12.9549 14.2086 12.3104C14.6305 11.66 14.982 11.1327 14.9996 11.1327C15.0172 11.1327 15.3746 11.66 15.7906 12.3104Z" fill="#58C19B"/>
</svg>
