<svg width="30" height="30" viewBox="0 0 30 30" fill="none" xmlns="http://www.w3.org/2000/svg">
<path d="M13.5469 1.99219C13.2656 2.16797 13.125 2.43164 13.125 2.8125C13.125 3.19336 13.2656 3.45703 13.5469 3.63281C13.7344 3.74414 13.8516 3.75 16.4941 3.75H19.248L19.459 3.60938C20.0039 3.24023 19.9863 2.34375 19.4355 1.99805C19.2363 1.875 19.1777 1.875 16.4883 1.875C13.8516 1.875 13.7344 1.88086 13.5469 1.99219Z" fill="#58C19B"/>
<path d="M15.5859 5.80078C13.248 5.98242 10.8574 6.99609 9.08786 8.56641C8.32028 9.24609 8.19138 9.41602 8.15622 9.80859C8.13864 10.0605 8.15622 10.1719 8.26169 10.3594C8.49021 10.7637 9.01755 10.9453 9.47458 10.7754C9.56247 10.7461 9.79685 10.5645 9.99021 10.377C11.3144 9.10547 12.832 8.2793 14.5312 7.9043C16.1484 7.55273 17.789 7.64648 19.3945 8.17969C22.4824 9.20508 24.75 11.7246 25.5293 15C25.7461 15.9199 25.7812 17.4492 25.6113 18.4512C25.2715 20.4316 24.4453 22.0312 23.0039 23.4727C22.2011 24.2754 21.5332 24.7676 20.6718 25.2012C19.2715 25.9043 18.041 26.1973 16.4707 26.1973C14.0859 26.1914 11.9531 25.3535 10.1543 23.6953C9.53317 23.127 9.47458 23.0918 9.11716 23.0859C8.3906 23.0801 7.92771 23.8125 8.23825 24.4688C8.5195 25.0547 10.4121 26.4844 11.6894 27.0703C13.289 27.8086 14.7304 28.125 16.4883 28.125C18.1113 28.125 19.4824 27.8555 20.8769 27.252C24.4863 25.7051 27.0117 22.4004 27.5683 18.5098C27.7441 17.2852 27.6562 15.5508 27.3691 14.332C27.0234 12.8906 26.2558 11.291 25.3593 10.1426L25.0664 9.77344L25.8281 9C26.25 8.57812 26.625 8.15625 26.6543 8.06836C26.8359 7.59961 26.666 7.07227 26.2617 6.83789C26.039 6.70898 25.582 6.68555 25.3652 6.79688C25.289 6.83789 24.8789 7.21289 24.457 7.62891L23.6836 8.39062L23.3144 8.09766C21.6211 6.77344 19.5937 5.99414 17.3437 5.80078C16.6113 5.73633 16.4179 5.73633 15.5859 5.80078Z" fill="#58C19B"/>
<path d="M16.1543 11.8008C15.8789 11.9004 15.7383 12.0234 15.6211 12.2754C15.5391 12.4395 15.5273 12.8027 15.5273 14.8184C15.5273 17.4375 15.5273 17.4375 15.9141 17.7305L16.1309 17.9004H18.5215C20.8535 17.9004 20.9121 17.9004 21.0762 17.7773C21.6562 17.3496 21.6562 16.582 21.0762 16.1484C20.918 16.0312 20.8301 16.0254 19.1836 16.0078L17.4609 15.9902V14.2676C17.4609 13.1953 17.4375 12.4863 17.3965 12.3809C17.3086 12.1348 16.998 11.8418 16.7578 11.7773C16.4941 11.7012 16.4238 11.707 16.1543 11.8008Z" fill="#58C19B"/>
<path d="M2.90036 12.0352C2.80661 12.082 2.6484 12.1992 2.54879 12.2988C2.40817 12.4512 2.37301 12.5391 2.35544 12.8496C2.33786 13.1543 2.35544 13.2422 2.47262 13.4121C2.54294 13.5234 2.68356 13.6699 2.77145 13.7344C2.93551 13.8574 2.99411 13.8574 6.16989 13.875L9.40426 13.8867L9.66794 13.7578C10.3652 13.4063 10.3418 12.3281 9.63278 12.0352C9.35153 11.918 3.16403 11.918 2.90036 12.0352Z" fill="#58C19B"/>
<path d="M4.88675 16.078C4.78714 16.1248 4.65237 16.2303 4.58206 16.3182C4.1719 16.8338 4.32425 17.5663 4.89261 17.8182C5.1387 17.9295 5.28519 17.9295 8.37308 17.9178C11.5371 17.9002 11.5957 17.9002 11.7598 17.7772C12.0469 17.5663 12.1875 17.2967 12.1875 16.9745C12.1875 16.5819 12.0059 16.2655 11.6895 16.1131C11.4551 16.0018 11.3321 15.9959 8.25589 15.9959C5.71878 16.0018 5.03323 16.0194 4.88675 16.078Z" fill="#58C19B"/>
<path d="M2.81247 20.1621C2.49606 20.3496 2.37887 20.543 2.35544 20.9473C2.33786 21.2402 2.35544 21.334 2.47262 21.498C2.54294 21.6094 2.68356 21.7559 2.77145 21.8203C2.93551 21.9434 2.99411 21.9434 6.16989 21.9609L9.40426 21.9727L9.66794 21.8438C10.1894 21.5801 10.3476 20.8828 9.9902 20.4141C9.69723 20.0332 9.77926 20.0391 6.22848 20.0391C3.09958 20.0391 3.01169 20.0449 2.81247 20.1621Z" fill="#58C19B"/>
</svg>
