<svg width="24" height="25" viewBox="0 0 24 25" fill="none" xmlns="http://www.w3.org/2000/svg">
<g clip-path="url(#clip0_91_4809)">
<path d="M13 1.49964C13 1.23443 13.1053 0.980073 13.2929 0.792537C13.4804 0.605001 13.7348 0.499644 14 0.499644C16.6512 0.502555 19.1931 1.55706 21.0678 3.43179C22.9425 5.30653 23.997 7.84837 24 10.4996C24 10.7649 23.8946 11.0192 23.7071 11.2068C23.5195 11.3943 23.2652 11.4996 23 11.4996C22.7347 11.4996 22.4804 11.3943 22.2929 11.2068C22.1053 11.0192 22 10.7649 22 10.4996C21.9976 8.37864 21.154 6.3452 19.6542 4.84542C18.1544 3.34565 16.121 2.50203 14 2.49964C13.7348 2.49964 13.4804 2.39429 13.2929 2.20675C13.1053 2.01921 13 1.76486 13 1.49964ZM14 6.49964C15.0608 6.49964 16.0782 6.92107 16.8284 7.67122C17.5785 8.42136 18 9.43878 18 10.4996C18 10.7649 18.1053 11.0192 18.2929 11.2068C18.4804 11.3943 18.7347 11.4996 19 11.4996C19.2652 11.4996 19.5195 11.3943 19.7071 11.2068C19.8946 11.0192 20 10.7649 20 10.4996C19.9984 8.90883 19.3657 7.38363 18.2409 6.25876C17.116 5.13388 15.5908 4.50123 14 4.49964C13.7348 4.49964 13.4804 4.605 13.2929 4.79254C13.1053 4.98007 13 5.23443 13 5.49964C13 5.76486 13.1053 6.01921 13.2929 6.20675C13.4804 6.39429 13.7348 6.49964 14 6.49964ZM23.093 17.2386C23.6725 17.8198 23.9979 18.607 23.9979 19.4276C23.9979 20.2483 23.6725 21.0355 23.093 21.6166L22.183 22.6656C13.993 30.5066 -5.93701 10.5816 1.78298 2.36564L2.93298 1.36564C3.51475 0.802321 4.29491 0.490693 5.10468 0.498179C5.91445 0.505664 6.68872 0.831662 7.25998 1.40564C7.29098 1.43664 9.14398 3.84364 9.14398 3.84364C9.6938 4.42127 9.99988 5.18857 9.99858 5.98605C9.99727 6.78352 9.68869 7.54982 9.13698 8.12564L7.97898 9.58165C8.61982 11.1388 9.56204 12.5539 10.7515 13.7457C11.9409 14.9376 13.3542 15.8827 14.91 16.5266L16.375 15.3616C16.9509 14.8104 17.717 14.5021 18.5143 14.501C19.3115 14.4999 20.0785 14.806 20.656 15.3556C20.656 15.3556 23.062 17.2076 23.093 17.2386ZM21.717 18.6926C21.717 18.6926 19.324 16.8516 19.293 16.8206C19.0869 16.6164 18.8086 16.5018 18.5185 16.5018C18.2283 16.5018 17.95 16.6164 17.744 16.8206C17.717 16.8486 15.7 18.4556 15.7 18.4556C15.564 18.5638 15.4023 18.6348 15.2306 18.6614C15.0589 18.6881 14.8833 18.6695 14.721 18.6076C12.7054 17.8572 10.8747 16.6824 9.35281 15.1627C7.83091 13.6431 6.65338 11.8141 5.89998 9.79965C5.83318 9.6351 5.8114 9.45573 5.83688 9.27998C5.86237 9.10423 5.93419 8.93844 6.04498 8.79965C6.04498 8.79965 7.65198 6.78164 7.67898 6.75564C7.88324 6.54963 7.99786 6.27126 7.99786 5.98114C7.99786 5.69103 7.88324 5.41266 7.67898 5.20664C7.64798 5.17664 5.80698 2.78164 5.80698 2.78164C5.59788 2.59415 5.32498 2.49374 5.04423 2.50099C4.76347 2.50824 4.49612 2.62261 4.29698 2.82064L3.14698 3.82064C-2.49501 10.6046 14.776 26.9176 20.721 21.2996L21.632 20.2496C21.8454 20.0519 21.9737 19.7789 21.9895 19.4883C22.0054 19.1978 21.9076 18.9125 21.717 18.6926Z" fill="#374957"/>
</g>
<defs>
<clipPath id="clip0_91_4809">
<rect width="24" height="24" fill="white" transform="translate(0 0.5)"/>
</clipPath>
</defs>
</svg>
