<svg width="20" height="20" viewBox="0 0 20 20" fill="none" xmlns="http://www.w3.org/2000/svg">
<g clip-path="url(#clip0_1_6200)">
<path d="M16.1115 12.2227C15.4814 12.2232 14.8609 12.377 14.3036 12.6709C13.7462 12.9647 13.2687 13.3898 12.9123 13.9094L7.48813 11.4602C7.87339 10.5299 7.87489 9.48495 7.4923 8.55354L12.909 6.09187C13.4372 6.85584 14.2217 7.40518 15.1203 7.64024C16.0189 7.87531 16.9719 7.78054 17.8066 7.37312C18.6412 6.9657 19.3022 6.27262 19.6697 5.41959C20.0371 4.56657 20.0866 3.6101 19.8093 2.72368C19.5319 1.83727 18.946 1.07962 18.1579 0.588169C17.3698 0.0967179 16.4316 -0.0959833 15.5136 0.0450196C14.5956 0.186023 13.7585 0.65139 13.1542 1.35671C12.5499 2.06203 12.2184 2.96058 12.2198 3.88937C12.2233 4.10921 12.2456 4.32834 12.2865 4.54437L6.52814 7.16104C5.97509 6.64289 5.28273 6.29757 4.53611 6.16751C3.7895 6.03745 3.02116 6.1283 2.32548 6.42892C1.62979 6.72954 1.03707 7.22682 0.620132 7.85967C0.203191 8.49253 -0.0198099 9.23339 -0.021475 9.99125C-0.0231401 10.7491 0.196603 11.4909 0.610759 12.1256C1.02492 12.7603 1.61545 13.2602 2.3098 13.5639C3.00415 13.8675 3.77209 13.9618 4.51927 13.835C5.26644 13.7082 5.96031 13.3659 6.51564 12.8502L12.289 15.4569C12.2489 15.6727 12.2268 15.8915 12.2231 16.111C12.223 16.8803 12.4509 17.6324 12.8782 18.2721C13.3055 18.9118 13.9129 19.4104 14.6236 19.7048C15.3343 19.9993 16.1163 20.0764 16.8708 19.9264C17.6253 19.7763 18.3184 19.4059 18.8624 18.8619C19.4063 18.318 19.7767 17.6249 19.9268 16.8704C20.0768 16.1159 19.9997 15.3339 19.7053 14.6232C19.4108 13.9125 18.9122 13.3051 18.2725 12.8778C17.6328 12.4505 16.8807 12.2225 16.1115 12.2227ZM16.1115 1.66687C16.5511 1.66671 16.9809 1.79692 17.3465 2.04103C17.712 2.28514 17.997 2.63219 18.1654 3.03828C18.3337 3.44438 18.3779 3.89127 18.2922 4.32245C18.2065 4.75363 17.9949 5.14972 17.6841 5.46062C17.3734 5.77153 16.9773 5.98328 16.5462 6.06911C16.1151 6.15493 15.6681 6.11097 15.262 5.94277C14.8558 5.77458 14.5087 5.48972 14.2644 5.12421C14.0202 4.75871 13.8898 4.32898 13.8898 3.88937C13.8902 3.30021 14.1244 2.73529 14.541 2.31861C14.9575 1.90193 15.5223 1.66754 16.1115 1.66687ZM3.8898 12.2227C3.4502 12.2229 3.02042 12.0927 2.65482 11.8486C2.28922 11.6044 2.00423 11.2574 1.83589 10.8513C1.66754 10.4452 1.62341 9.99831 1.70907 9.56713C1.79473 9.13595 2.00634 8.73986 2.31713 8.42896C2.62792 8.11805 3.02393 7.9063 3.45507 7.82047C3.88622 7.73465 4.33313 7.77861 4.73929 7.9468C5.14545 8.115 5.4926 8.39986 5.73685 8.76536C5.9811 9.13087 6.11147 9.5606 6.11147 10.0002C6.11081 10.5893 5.87655 11.1541 5.46008 11.5707C5.0436 11.9874 4.4789 12.2218 3.8898 12.2227ZM16.1115 18.3335C15.6719 18.3335 15.2422 18.2032 14.8767 17.959C14.5112 17.7148 14.2264 17.3677 14.0581 16.9616C13.8899 16.5554 13.8459 16.1086 13.9317 15.6775C14.0174 15.2463 14.2291 14.8503 14.5399 14.5395C14.8507 14.2287 15.2468 14.017 15.6779 13.9312C16.109 13.8455 16.5559 13.8895 16.962 14.0577C17.3681 14.2259 17.7152 14.5108 17.9594 14.8763C18.2036 15.2418 18.334 15.6715 18.334 16.111C18.3335 16.7003 18.0992 17.2654 17.6825 17.6821C17.2658 18.0988 16.7008 18.3331 16.1115 18.3335Z" fill="#596D7F"/>
</g>
<defs>
<clipPath id="clip0_1_6200">
<rect width="20" height="20" fill="white"/>
</clipPath>
</defs>
</svg>
