<svg width="20" height="21" viewBox="0 0 20 21" fill="none" xmlns="http://www.w3.org/2000/svg">
<g clip-path="url(#clip0_1_1262)">
<path d="M17.0783 7.13924L9.12833 1.3059C8.50741 0.851224 7.77269 0.577399 7.00564 0.514789C6.23859 0.45218 5.46919 0.603234 4.78275 0.951201C4.0963 1.29917 3.51965 1.83045 3.11672 2.48614C2.71378 3.14183 2.50032 3.8963 2.5 4.6659V16.3326C2.50014 17.1025 2.71361 17.8574 3.11673 18.5134C3.51985 19.1693 4.09684 19.7008 4.78368 20.0487C5.47052 20.3967 6.24034 20.5475 7.00771 20.4845C7.77507 20.4215 8.50996 20.1471 9.13083 19.6917L17.0808 13.8584C17.6086 13.4714 18.0377 12.9655 18.3335 12.3818C18.6293 11.798 18.7835 11.1528 18.7835 10.4984C18.7835 9.84399 18.6293 9.19877 18.3335 8.61502C18.0377 8.03127 17.6086 7.52541 17.0808 7.1384L17.0783 7.13924ZM16.0917 12.5142L8.14167 18.3476C7.76918 18.6198 7.32864 18.7836 6.86881 18.8209C6.40898 18.8582 5.9478 18.7675 5.53631 18.5589C5.12482 18.3503 4.77907 18.0319 4.53734 17.639C4.2956 17.2461 4.16731 16.7939 4.16667 16.3326V4.6659C4.16204 4.20369 4.28791 3.74956 4.52981 3.35567C4.77172 2.96179 5.11983 2.64415 5.53417 2.43924C5.88658 2.25998 6.27629 2.16634 6.67167 2.1659C7.20158 2.16793 7.71685 2.33998 8.14167 2.65674L16.0917 8.49007C16.4079 8.72232 16.6651 9.02574 16.8423 9.37579C17.0195 9.72585 17.1119 10.1127 17.1119 10.5051C17.1119 10.8974 17.0195 11.2843 16.8423 11.6343C16.6651 11.9844 16.4079 12.2878 16.0917 12.5201V12.5142Z" fill="#58C19B"/>
</g>
<defs>
<clipPath id="clip0_1_1262">
<rect width="20" height="20" fill="white" transform="translate(0 0.5)"/>
</clipPath>
</defs>
</svg>
