<svg width="20" height="21" viewBox="0 0 20 21" fill="none" xmlns="http://www.w3.org/2000/svg">
<g clip-path="url(#clip0_1_1259)">
<path d="M19.1663 9.66699H17.4997V8.00032C17.4997 7.77931 17.4119 7.56735 17.2556 7.41107C17.0993 7.25479 16.8873 7.16699 16.6663 7.16699C16.4453 7.16699 16.2334 7.25479 16.0771 7.41107C15.9208 7.56735 15.833 7.77931 15.833 8.00032V9.66699H14.1663C13.9453 9.66699 13.7334 9.75478 13.5771 9.91106C13.4208 10.0673 13.333 10.2793 13.333 10.5003C13.333 10.7213 13.4208 10.9333 13.5771 11.0896C13.7334 11.2459 13.9453 11.3337 14.1663 11.3337H15.833V13.0003C15.833 13.2213 15.9208 13.4333 16.0771 13.5896C16.2334 13.7458 16.4453 13.8336 16.6663 13.8336C16.8873 13.8336 17.0993 13.7458 17.2556 13.5896C17.4119 13.4333 17.4997 13.2213 17.4997 13.0003V11.3337H19.1663C19.3873 11.3337 19.5993 11.2459 19.7556 11.0896C19.9119 10.9333 19.9997 10.7213 19.9997 10.5003C19.9997 10.2793 19.9119 10.0673 19.7556 9.91106C19.5993 9.75478 19.3873 9.66699 19.1663 9.66699Z" fill="#0E2B4C"/>
<path d="M7.5 10.5C8.48891 10.5 9.45561 10.2068 10.2779 9.65735C11.1001 9.10794 11.741 8.32705 12.1194 7.41342C12.4978 6.49979 12.5969 5.49446 12.4039 4.52455C12.211 3.55465 11.7348 2.66373 11.0355 1.96447C10.3363 1.26521 9.44536 0.789002 8.47545 0.596076C7.50555 0.40315 6.50021 0.502166 5.58658 0.880605C4.67295 1.25904 3.89206 1.89991 3.34265 2.72215C2.79324 3.5444 2.5 4.5111 2.5 5.5C2.50132 6.82568 3.02853 8.09668 3.96593 9.03407C4.90332 9.97147 6.17432 10.4987 7.5 10.5ZM7.5 2.16667C8.15927 2.16667 8.80374 2.36217 9.3519 2.72844C9.90006 3.09471 10.3273 3.6153 10.5796 4.22439C10.8319 4.83348 10.8979 5.5037 10.7693 6.1503C10.6407 6.79691 10.3232 7.39085 9.85702 7.85703C9.39085 8.3232 8.79691 8.64067 8.1503 8.76929C7.5037 8.8979 6.83348 8.83189 6.22439 8.5796C5.6153 8.32731 5.09471 7.90007 4.72843 7.3519C4.36216 6.80374 4.16667 6.15927 4.16667 5.5C4.16667 4.61595 4.51786 3.7681 5.14298 3.14298C5.7681 2.51786 6.61595 2.16667 7.5 2.16667Z" fill="#0E2B4C"/>
<path d="M7.5 12.167C5.51155 12.1692 3.60518 12.9601 2.19914 14.3661C0.79309 15.7722 0.00220571 17.6785 0 19.667C0 19.888 0.0877974 20.1 0.244078 20.2562C0.400358 20.4125 0.61232 20.5003 0.833333 20.5003C1.05435 20.5003 1.26631 20.4125 1.42259 20.2562C1.57887 20.1 1.66667 19.888 1.66667 19.667C1.66667 18.1199 2.28125 16.6362 3.37521 15.5422C4.46917 14.4482 5.9529 13.8337 7.5 13.8337C9.0471 13.8337 10.5308 14.4482 11.6248 15.5422C12.7188 16.6362 13.3333 18.1199 13.3333 19.667C13.3333 19.888 13.4211 20.1 13.5774 20.2562C13.7337 20.4125 13.9457 20.5003 14.1667 20.5003C14.3877 20.5003 14.5996 20.4125 14.7559 20.2562C14.9122 20.1 15 19.888 15 19.667C14.9978 17.6785 14.2069 15.7722 12.8009 14.3661C11.3948 12.9601 9.48845 12.1692 7.5 12.167Z" fill="#0E2B4C"/>
</g>
<defs>
<clipPath id="clip0_1_1259">
<rect width="20" height="20" fill="white" transform="translate(0 0.5)"/>
</clipPath>
</defs>
</svg>
