<svg width="20" height="20" viewBox="0 0 20 20" fill="none" xmlns="http://www.w3.org/2000/svg">
<g clip-path="url(#clip0_1_5406)">
<path d="M10.832 0.833688C10.832 0.612674 10.9198 0.400712 11.0761 0.244432C11.2324 0.0881516 11.4443 0.000354244 11.6653 0.000354244C13.8747 0.00278058 15.9929 0.881534 17.5552 2.44381C19.1175 4.00609 19.9962 6.1243 19.9987 8.33369C19.9987 8.5547 19.9109 8.76666 19.7546 8.92294C19.5983 9.07922 19.3863 9.16702 19.1653 9.16702C18.9443 9.16702 18.7324 9.07922 18.5761 8.92294C18.4198 8.76666 18.332 8.5547 18.332 8.33369C18.33 6.56619 17.627 4.87165 16.3772 3.62183C15.1274 2.37202 13.4328 1.66901 11.6653 1.66702C11.4443 1.66702 11.2324 1.57922 11.0761 1.42294C10.9198 1.26666 10.832 1.0547 10.832 0.833688ZM11.6653 5.00035C12.5494 5.00035 13.3972 5.35154 14.0224 5.97667C14.6475 6.60179 14.9987 7.44963 14.9987 8.33369C14.9987 8.5547 15.0865 8.76666 15.2427 8.92294C15.399 9.07922 15.611 9.16702 15.832 9.16702C16.053 9.16702 16.265 9.07922 16.4213 8.92294C16.5775 8.76666 16.6653 8.5547 16.6653 8.33369C16.664 7.00801 16.1368 5.73701 15.1994 4.79962C14.262 3.86222 12.991 3.33501 11.6653 3.33369C11.4443 3.33369 11.2324 3.42149 11.0761 3.57777C10.9198 3.73405 10.832 3.94601 10.832 4.16702C10.832 4.38804 10.9198 4.6 11.0761 4.75628C11.2324 4.91256 11.4443 5.00035 11.6653 5.00035ZM19.2428 13.9495C19.7258 14.4338 19.9969 15.0898 19.9969 15.7737C19.9969 16.4576 19.7258 17.1136 19.2428 17.5979L18.4845 18.472C11.6595 25.0062 -4.94881 8.40202 1.48452 1.55535L2.44285 0.722021C2.92766 0.252585 3.57779 -0.00710486 4.2526 -0.000866721C4.92741 0.00537142 5.57263 0.277036 6.04868 0.755354C6.07451 0.781188 7.61868 2.78702 7.61868 2.78702C8.07687 3.26838 8.33193 3.9078 8.33084 4.57236C8.32976 5.23692 8.07261 5.8755 7.61284 6.35535L6.64784 7.56869C7.18188 8.86628 7.96706 10.0456 8.95827 11.0388C9.94947 12.032 11.1272 12.8195 12.4237 13.3562L13.6445 12.3854C14.1244 11.926 14.7629 11.6691 15.4272 11.6682C16.0916 11.6672 16.7308 11.9223 17.212 12.3804C17.212 12.3804 19.217 13.9237 19.2428 13.9495ZM18.0962 15.1612C18.0962 15.1612 16.102 13.627 16.0762 13.6012C15.9045 13.431 15.6725 13.3355 15.4307 13.3355C15.189 13.3355 14.957 13.431 14.7853 13.6012C14.7628 13.6245 13.082 14.9637 13.082 14.9637C12.9687 15.0538 12.8339 15.1129 12.6909 15.1352C12.5478 15.1574 12.4014 15.1419 12.2662 15.0904C10.5866 14.465 9.06096 13.486 7.79271 12.2196C6.52446 10.9532 5.54318 9.42905 4.91535 7.75036C4.85968 7.61323 4.84153 7.46376 4.86277 7.3173C4.884 7.17085 4.94386 7.03268 5.03618 6.91702C5.03618 6.91702 6.37534 5.23535 6.39784 5.21369C6.56807 5.04201 6.66358 4.81004 6.66358 4.56827C6.66358 4.32651 6.56807 4.09453 6.39784 3.92285C6.37201 3.89785 4.83785 1.90202 4.83785 1.90202C4.6636 1.74578 4.43618 1.6621 4.20222 1.66814C3.96826 1.67419 3.74547 1.76949 3.57951 1.93452L2.62118 2.76785C-2.08048 8.42119 12.312 22.0154 17.2662 17.3337L18.0253 16.4587C18.2032 16.2939 18.3101 16.0664 18.3233 15.8243C18.3365 15.5821 18.2551 15.3444 18.0962 15.1612Z" fill="#58C19B"/>
</g>
<defs>
<clipPath id="clip0_1_5406">
<rect width="20" height="20" fill="white"/>
</clipPath>
</defs>
</svg>
