<svg width="150" height="52" viewBox="0 0 150 52" fill="none" xmlns="http://www.w3.org/2000/svg">
<g clip-path="url(#clip0_56_177)">
<path d="M130.596 32.3075L138.284 22.2312L138.105 26.1067L130.774 16.0006H138.373L141.979 21.3965L139.178 21.6052L143.141 16.0006H150.203L142.843 25.7788V22.0524L150.352 32.3075H142.634L138.91 26.5539L141.74 26.9415L137.896 32.3075H130.596Z" fill="#58C19B"/>
<path d="M111.252 32.3075V11.4395H121.295C123.242 11.4395 124.92 11.7574 126.331 12.3934C127.761 13.0294 128.864 13.9436 129.638 15.1361C130.413 16.3087 130.801 17.6999 130.801 19.3097C130.801 20.9195 130.413 22.3107 129.638 23.4833C128.864 24.636 127.761 25.5204 126.331 26.1365C124.92 26.7526 123.242 27.0607 121.295 27.0607H115.156L118.285 24.169V32.3075H111.252ZM123.738 32.3075L118.613 24.7056H126.063L131.248 32.3075H123.738ZM118.285 24.9441L115.156 21.7542H120.848C121.821 21.7542 122.536 21.5356 122.993 21.0984C123.47 20.6612 123.708 20.0649 123.708 19.3097C123.708 18.5545 123.47 17.9582 122.993 17.521C122.536 17.0838 121.821 16.8652 120.848 16.8652H115.156L118.285 13.6753V24.9441Z" fill="#58C19B"/>
<path d="M67.3216 48.7011V11.6992H76.7779V48.7011H67.3216Z" fill="#0E2B4C"/>
<path fill-rule="evenodd" clip-rule="evenodd" d="M51.9961 29.7015C51.1002 28.8703 49.6569 28.4548 47.6661 28.4548C46.3721 28.4548 45.0615 28.6709 43.7343 29.1031C42.4071 29.502 41.279 30.0672 40.35 30.7986L37.1647 24.3656C38.691 23.3683 40.5159 22.6036 42.6394 22.0717C44.7961 21.5065 46.9362 21.224 49.0597 21.224C53.4394 21.224 56.8237 22.2379 59.2127 24.2659C61.6348 26.2606 62.8459 29.4023 62.8459 33.6909V48.7011H54.0366V45.2057C53.4902 46.2572 52.7271 47.1065 51.7472 47.7536C50.3205 48.6845 48.4293 49.1499 46.0735 49.1499C43.9168 49.1499 42.0919 48.7842 40.5988 48.0528C39.1057 47.3214 37.961 46.324 37.1647 45.0607C36.4016 43.7974 36.02 42.3845 36.02 40.822C36.02 39.1597 36.4348 37.7302 37.2643 36.5333C38.1269 35.3033 39.4375 34.3724 41.1961 33.7408C42.9546 33.0759 45.2274 32.7434 48.0145 32.7434H53.3781C53.3014 31.4409 52.8408 30.4269 51.9961 29.7015ZM46.0735 38.4283C46.7039 37.9296 47.7823 37.6803 49.3085 37.6803H53.3897L53.3896 37.78V40.0241C52.9915 41.0879 52.3611 41.8858 51.4984 42.4177C50.6689 42.9164 49.7399 43.1658 48.7113 43.1658C47.6164 43.1658 46.7537 42.9164 46.1233 42.4177C45.4928 41.9191 45.1776 41.2542 45.1776 40.423C45.1776 39.5919 45.4763 38.927 46.0735 38.4283Z" fill="#0E2B4C"/>
<path fill-rule="evenodd" clip-rule="evenodd" d="M95.5648 49.1499C92.3795 49.1499 89.5924 48.5515 87.2035 47.3546C84.8477 46.1246 83.0062 44.4623 81.679 42.3679C80.385 40.2402 79.738 37.8299 79.738 35.1371C79.738 32.4442 80.3684 30.0505 81.6292 27.9561C82.9233 25.8284 84.6984 24.1828 86.9546 23.0192C89.2108 21.8224 91.7491 21.224 94.5694 21.224C97.2237 21.224 99.6459 21.7725 101.836 22.8696C104.026 23.9334 105.768 25.5126 107.062 27.607C108.356 29.7015 109.003 32.2447 109.003 35.2368C109.003 35.5692 108.986 35.9516 108.953 36.3837C108.92 36.8159 108.886 37.2149 108.853 37.5806H89.2535C89.3837 38.0633 89.563 38.5121 89.7915 38.927C90.3555 39.8911 91.1519 40.6391 92.1804 41.171C93.209 41.6697 94.4366 41.9191 95.8634 41.9191C97.1906 41.9191 98.3187 41.7362 99.2477 41.3705C100.21 40.9716 101.156 40.3732 102.085 39.5753L107.062 44.7615C105.768 46.1911 104.175 47.2882 102.284 48.0528C100.392 48.7842 98.1528 49.1499 95.5648 49.1499ZM97.5555 28.7041C98.4182 29.2028 99.0818 29.9009 99.5463 30.7986C99.8449 31.3371 100.048 31.9355 100.156 32.5938H89.1153C89.2281 31.9552 89.4203 31.3734 89.6919 30.8484C90.1565 29.9176 90.8035 29.2028 91.633 28.7041C92.4956 28.2054 93.491 27.9561 94.6191 27.9561C95.7472 27.9561 96.726 28.2054 97.5555 28.7041Z" fill="#0E2B4C"/>
<path d="M23.4424 44.1734C23.4424 45.9284 23.5856 47.2566 23.872 48.1578C24.2061 49.0116 24.8743 49.5809 25.8767 49.8655C26.9267 50.1501 28.5018 50.3161 30.602 50.3635V52H5.54353V50.3635C7.6914 50.3161 9.2665 50.1501 10.2688 49.8655C11.3189 49.5809 11.9871 49.0116 12.2735 48.1578C12.5599 47.2566 12.7031 45.9284 12.7031 44.1734V8.46699L6.1163 12.5938L4.61279 10.3169L20.507 0H23.9436C23.7527 0.901249 23.6095 1.8025 23.514 2.70375C23.4663 3.605 23.4424 4.50624 23.4424 5.40749V44.1734Z" fill="#58C19B"/>
<path d="M26.6559 13.4883C26.7393 13.8773 27.0765 14.6877 27.7589 14.8171C28.6118 14.9789 30.0946 15.7022 30.205 16.5186C30.3153 17.3351 28.9282 19.3703 26.2984 19.7259C25.3877 19.8491 24.3991 19.8056 23.4158 19.6723L23.4158 27.9783C32.1367 30.4213 33.1404 35.5084 33.4241 37.6073C33.7106 39.7273 33.7746 47.366 25.1164 49.5259C24.512 49.6766 23.865 49.8007 23.1727 49.8944C18.5823 50.5152 15.0501 49.6204 12.3966 48.1559C9.89832 46.7772 3.58378 42.2425 2.49316 40.643C1.40267 39.0434 2.53161 38.2059 4.81869 39.2746C5.65652 39.7187 11.2996 42.8485 12.8383 43.3805C15.3791 44.259 18.5472 44.9773 21.2583 44.6106C22.0857 44.4987 22.8 44.3081 23.4158 44.0608C26.8494 42.6822 27.2219 39.5427 27.0763 38.4658C26.9669 37.6557 26.7303 35.9052 23.4158 34.7316L23.4158 27.9783L23.4158 19.6723C21.6933 19.4387 19.9873 18.9298 18.7454 18.5593L18.4653 18.4759C16.809 17.9841 14.7186 17.825 12.8383 17.9702C12.5344 17.9936 12.2361 18.0251 11.946 18.0643C9.86026 18.3464 7.97559 19.4327 8.23303 21.3378C8.40133 22.5832 9.24941 23.8946 12.8383 25.2514L12.8383 32.01C12.029 31.8026 11.3594 31.6294 10.9001 31.5082C7.93173 30.7246 2.87086 28.123 2.06665 22.1718C1.0614 14.7327 8.88206 12.4741 11.3305 12.143C11.8932 12.0669 12.386 12.0149 12.8383 11.9807C14.0343 11.8904 14.9473 11.9251 16.1213 11.9697L16.1213 11.9697L16.122 11.9697C16.4357 11.9816 16.768 11.9942 17.1293 12.0054C18.0427 12.0335 18.6914 11.848 19.3631 11.6559C20.1711 11.4248 21.0126 11.1841 22.3888 11.294C22.7461 11.3226 23.0894 11.376 23.4158 11.4497C25.0511 11.8186 26.2606 12.6947 26.6559 13.4883Z" fill="#0E2B4C"/>
</g>
<defs>
<clipPath id="clip0_56_177">
<rect width="148.571" height="52" fill="white" transform="translate(0.714355)"/>
</clipPath>
</defs>
</svg>
