<svg width="30" height="30" viewBox="0 0 30 30" fill="none" xmlns="http://www.w3.org/2000/svg">
<path d="M7.5293 5.90625C6.82617 6.15234 6.32812 6.5918 6.01758 7.25391C5.83008 7.64062 5.83008 7.6582 5.8125 8.68359L5.78906 9.71484L4.75195 9.73828L3.71484 9.75586L3.27539 9.97266C2.73047 10.2422 2.34961 10.6289 2.0918 11.1797L1.9043 11.5723L1.88672 16.875L1.86914 22.1777L1.99805 22.5293C2.23828 23.2031 2.67188 23.6719 3.33398 23.9883L3.7207 24.1699H13.043H22.3594L22.7988 23.9531C23.3438 23.6836 23.7246 23.2969 23.9824 22.7461C24.1699 22.3594 24.1699 22.3418 24.1875 21.3164L24.2109 20.2852L25.2422 20.2617C26.2617 20.2441 26.2852 20.2383 26.6602 20.0625C27.2168 19.7988 27.6094 19.4121 27.873 18.8789L28.0957 18.4336V13.043V7.64648L27.9082 7.25391C27.6504 6.70312 27.2695 6.31641 26.7246 6.04688L26.2852 5.83008L17.0566 5.81836C8.41406 5.80664 7.80469 5.8125 7.5293 5.90625ZM25.9746 7.85156C26.0625 7.92188 26.1562 8.07422 26.1914 8.19141C26.2734 8.49023 26.2734 17.584 26.1914 17.8828C26.0801 18.2871 25.9395 18.3398 25.0137 18.3398H24.2051L24.1875 14.9531L24.1699 11.5723L23.9824 11.1738C23.7363 10.6523 23.2734 10.1895 22.752 9.94336L22.3535 9.75586L15.0469 9.73828L7.73438 9.72656V8.90039V8.07422L7.9043 7.9043L8.07422 7.73438H16.9512C25.7988 7.73438 25.8223 7.73438 25.9746 7.85156ZM22.0957 11.8301L22.2656 12V16.9629V21.9258L22.0957 22.0957L21.9258 22.2656H13.0488C4.20117 22.2656 4.17773 22.2656 4.02539 22.1484C3.9375 22.0781 3.84375 21.9258 3.80859 21.8086C3.72656 21.5098 3.72656 12.416 3.80859 12.1172C3.84375 12 3.9375 11.8477 4.02539 11.7773C4.17773 11.6602 4.20117 11.6602 13.0488 11.6602H21.9258L22.0957 11.8301Z" fill="#58C19B"/>
<path d="M12.1758 12.709C11.0215 13.0781 10.1426 14.1504 9.77344 15.6328C9.5918 16.3535 9.5918 17.5723 9.77344 18.293C10.2422 20.1738 11.4785 21.3281 13.0371 21.3281C14.4668 21.3281 15.6504 20.332 16.1777 18.7031C16.9805 16.1836 15.9023 13.3301 13.9043 12.7148C13.4121 12.5625 12.6445 12.5625 12.1758 12.709ZM13.5176 14.6895C14.6133 15.4395 14.8477 17.4844 13.9922 18.7793C13.7578 19.1367 13.3594 19.3945 13.043 19.3945C12.1875 19.3945 11.4434 18.0176 11.5664 16.6699C11.707 15.1348 12.6973 14.1328 13.5176 14.6895Z" fill="#58C19B"/>
<path d="M6.28125 16.0894C6.17578 16.148 6.01758 16.2827 5.92969 16.3941C5.79492 16.5698 5.77148 16.6636 5.77148 16.9624C5.77148 17.2612 5.79492 17.355 5.92969 17.5308C6.3457 18.0757 7.10742 18.0581 7.52344 17.4956C7.61719 17.3726 7.64648 17.2495 7.64648 16.9624C7.64648 16.564 7.55859 16.3823 7.24805 16.148C7.03711 15.9898 6.5332 15.9605 6.28125 16.0894Z" fill="#58C19B"/>
<path d="M18.9432 16.1132C18.2635 16.4589 18.2518 17.4257 18.9139 17.8007C19.3182 18.0292 19.787 17.9413 20.1268 17.5839C20.2675 17.4315 20.3026 17.3436 20.3202 17.0331C20.3378 16.7284 20.3202 16.6405 20.203 16.4706C19.8925 16.0194 19.4061 15.8788 18.9432 16.1132Z" fill="#58C19B"/>
</svg>
