<svg xmlns="http://www.w3.org/2000/svg" width="170" height="80"
     viewBox="0 0 170 80" fill="none">
  <path
    d="M39.7451 -39.4922C64.5896 -39.9894 80.9794 -20.0712 80.9795 -0.162109C80.9795 34.6994 62.1734 64.8429 30.2354 79.4043L19.5303 69.3359C30.8817 62.6114 40.2714 53.5654 44.3135 40.6143L44.5391 39.8906L43.7842 39.9678C42.4528 40.1046 41.1012 40.1758 39.7334 40.1758C34.0599 40.1757 28.6689 38.9682 23.8008 36.7969L22.834 36.3506C9.62425 30.0208 0.500095 16.5015 0.5 0.84668C0.5 -20.2916 18.8933 -38.9934 39.7461 -39.4912L39.7451 -39.4922ZM128.266 -39.4922C153.11 -39.9895 169.5 -20.0713 169.5 -0.162109C169.5 34.6995 150.694 64.8429 118.756 79.4043L108.051 69.3359C119.402 62.6114 128.792 53.5655 132.834 40.6143L133.06 39.8906L132.306 39.9678C130.974 40.1046 129.623 40.1758 128.255 40.1758C122.581 40.1758 117.19 38.9683 112.321 36.7969L111.355 36.3506C98.1456 30.0208 89.0206 16.5015 89.0205 0.84668C89.0205 -20.2916 107.414 -38.9934 128.267 -39.4912L128.266 -39.4922Z"
    stroke="#58C19B"/>
</svg>
