<svg width="30" height="30" viewBox="0 0 30 30" fill="none" xmlns="http://www.w3.org/2000/svg">
<path d="M14.3848 1.96247C10.0371 2.57184 6.30469 5.12653 4.20117 8.9527C3.14062 10.8629 2.51953 13.2242 2.51953 15.2867C2.51953 15.7086 2.54297 15.8257 2.6543 16.0132C2.90625 16.4234 3.01758 16.4644 4.01953 16.4644C4.99219 16.4644 4.98047 16.4586 4.98047 16.8277C4.98047 17.1382 5.27344 18.4625 5.48438 19.1011C5.74805 19.9156 6.46875 21.3394 6.96094 22.025C8.95898 24.8257 11.9004 26.4957 15.3398 26.7828C16.4414 26.8765 17.7715 26.7828 18.1289 26.5836C18.7969 26.2203 18.7676 25.2359 18.0762 24.9019C17.8184 24.7789 17.7891 24.7789 16.9805 24.8492C14.4844 25.066 12.0645 24.275 10.084 22.5933C8.50195 21.2574 7.33008 19.1832 6.98438 17.1324L6.87305 16.4937L11.7246 16.4644C16.5059 16.4351 16.5762 16.4351 16.7344 16.3121C16.8223 16.2476 16.9512 16.1187 17.0156 16.0308C17.1387 15.8726 17.1387 15.814 17.1562 11.0386L17.168 6.20465L17.3906 6.23981C18.9902 6.50348 20.1797 6.96051 21.416 7.77497C22.2363 8.31989 23.3906 9.48005 23.959 10.3297C24.9668 11.8531 25.459 13.3648 25.5234 15.1461C25.5645 16.1773 25.6055 16.3414 25.8691 16.5757C26.2383 16.898 26.6484 16.9332 27.0645 16.6812C27.3809 16.4937 27.4805 16.1949 27.4805 15.4273C27.4805 13.816 27.0938 12.1343 26.3672 10.6343C25.7695 9.39801 25.0664 8.43122 24.0469 7.43512C23.0625 6.48005 22.2715 5.92926 21.0059 5.32575C19.9219 4.81012 18.7734 4.482 17.4492 4.30622L17.168 4.27106V3.45075C17.168 2.54255 17.1211 2.36676 16.8223 2.07965L16.6348 1.90387L15.8027 1.89215C15.3457 1.8863 14.707 1.92145 14.3848 1.96247ZM15.2344 9.1988V14.5894H9.86719H4.49414L4.53516 14.1675C4.67578 12.6207 5.38477 10.6461 6.29883 9.22809C7.81641 6.86676 10.2012 5.06208 12.8379 4.27692C13.3887 4.11286 14.4199 3.89606 14.8828 3.84919C14.9941 3.83747 15.123 3.81989 15.1641 3.81989C15.2168 3.80817 15.2344 4.92145 15.2344 9.1988Z" fill="#58C19B"/>
<path d="M22.5881 16.5465C22.3537 16.6462 22.1017 16.945 22.0549 17.1852C22.0256 17.3493 21.9611 17.3962 21.6096 17.5719C20.3849 18.1579 19.717 19.652 20.0685 21.0055C20.2736 21.7848 20.8537 22.529 21.551 22.8981C22.0197 23.1501 22.1838 23.1969 22.7814 23.2614C23.3557 23.3258 23.6486 23.4665 23.8654 23.8063C24.1584 24.2516 24.0353 24.9547 23.6193 25.2536C23.0392 25.6637 22.4182 25.4997 21.9904 24.8258C21.8322 24.5797 21.4748 24.3747 21.1818 24.3747C21.0881 24.3747 20.9006 24.4274 20.7658 24.486C20.2443 24.7204 20.0803 25.2946 20.3557 25.863C20.5783 26.3141 21.1467 26.859 21.633 27.0876C21.8498 27.193 22.0314 27.3102 22.0314 27.3512C22.0314 27.5329 22.2365 27.8493 22.4357 27.984C22.7053 28.1657 23.1974 28.1774 23.4846 28.0075C23.6955 27.8786 23.9064 27.5739 23.9064 27.3922C23.9064 27.3044 24.0002 27.234 24.2463 27.1169C24.9318 26.8005 25.465 26.2321 25.7814 25.488C25.9689 25.0426 26.0158 24.0817 25.8693 23.5778C25.5764 22.5641 24.8088 21.7614 23.8654 21.486C23.6955 21.4333 23.3674 21.3747 23.133 21.3512C22.6525 21.3102 22.4826 21.2399 22.2599 20.9938C21.9142 20.6305 21.8322 20.2321 22.0021 19.8219C22.1193 19.5407 22.2424 19.4059 22.5119 19.2712C22.7873 19.1305 23.174 19.1305 23.4377 19.2712C23.549 19.3297 23.7599 19.529 23.9064 19.7165C24.2287 20.1266 24.3752 20.2087 24.7736 20.2145C25.3654 20.2145 25.7228 19.863 25.7228 19.2712C25.7228 18.9899 25.6935 18.8962 25.5002 18.5973C25.2072 18.1462 24.7267 17.7184 24.2756 17.5075C24.0588 17.402 23.9064 17.2965 23.9064 17.2438C23.9064 17.1969 23.8478 17.0505 23.7775 16.9274C23.5607 16.5348 23.0099 16.359 22.5881 16.5465Z" fill="#58C19B"/>
</svg>
