<svg width="151" height="258" viewBox="0 0 151 258" fill="none" xmlns="http://www.w3.org/2000/svg">
<path d="M96.1634 220.738C96.1634 229.139 96.8463 235.496 98.2122 239.81C99.8058 243.896 102.993 246.621 107.774 247.983C112.782 249.345 120.295 250.14 130.311 250.367V258.2H10.7937V250.367C21.0381 250.14 28.5506 249.345 33.3313 247.983C38.3397 246.621 41.5268 243.896 42.8927 239.81C44.2586 235.496 44.9416 229.139 44.9416 220.738V84.638V74.2326V41.5057L13.5255 61.2584L6.35449 50.3604L82.1627 0.978516H98.5537C97.6431 5.29233 96.9601 9.60615 96.5048 13.92C96.2772 18.2338 96.1634 22.5476 96.1634 26.8614V220.738Z" fill="#F6FAFA"/>
<path d="M44.9416 74.2326C40.3711 75.065 31.2302 78.3115 31.2302 84.638H44.9416V74.2326Z" fill="#F6FAFA"/>
<path fill-rule="evenodd" clip-rule="evenodd" d="M124.831 72.5675C129.89 79.227 130.031 83.6666 129.469 85.054C131.998 86.1639 137.31 88.3837 138.322 88.3837H150.127L141.695 92.9621L144.646 102.951C142.257 100.454 137.226 95.2929 136.214 94.627C135.202 93.961 129.889 92.1297 127.36 91.2972C125.251 95.8756 109.23 102.119 91.1003 102.119C72.9705 102.119 65.803 86.7188 65.3813 82.9729C56.1057 74.2324 37.9759 76.7297 34.603 81.7243C45.1435 77.3742 54.1381 80.4756 58.2138 82.9729C51.1867 82.9729 37.1327 88.3837 37.1327 102.951C37.1327 110.301 39.7007 114.835 44.9417 118.52V152.457C22.8823 143.451 4.07042 129.034 4.92896 102.951C5.98808 70.7742 35.446 53.1276 66.646 53.1276C71.2839 53.1276 72.9184 53.1423 75.5001 53.4216C76.6244 51.6179 81.994 48.0107 92.7876 48.0107C106.176 48.0107 118.32 63.9962 124.685 72.3754L124.831 72.5675ZM96.1635 174.798C100.173 179.135 102.35 184.488 101.219 191.189C100.657 198.265 93.9671 212.416 71.7055 212.416C46.7902 212.416 26.4842 199.61 15.7758 189.94C15.2799 189.493 14.6413 188.801 13.9042 188.002C10.8966 184.743 6.25067 179.708 2.98133 182.254C-1.81729 185.99 3.3567 196.57 5.34867 200.643L5.407 200.762C13.8054 217.94 34.1655 240.719 71.7055 240.719C128.203 240.719 136.214 204.508 136.214 191.189C136.214 177.871 136.214 157.893 96.1635 139.996V174.798ZM93.2083 92.1297C93.2083 89.07 87.7919 86.3616 83.9326 86.2417C81.7969 86.1753 80.1381 86.9017 80.1381 88.7999C80.1381 94.2482 93.2083 98.9887 93.2083 92.1297Z" fill="white"/>
<path d="M124.831 72.5675C129.89 79.227 130.031 83.6666 129.469 85.054C131.998 86.1639 137.31 88.3837 138.322 88.3837M124.831 72.5675L124.685 72.3754M124.831 72.5675C124.783 72.5039 124.734 72.4399 124.685 72.3754M96.1597 139.995L96.1635 139.996M150.127 88.3837L141.695 92.9621L144.646 102.951C142.257 100.454 137.226 95.2929 136.214 94.627C135.202 93.961 129.889 92.1297 127.36 91.2972C125.251 95.8756 109.23 102.119 91.1003 102.119C72.9705 102.119 65.803 86.7188 65.3813 82.9729C56.1057 74.2324 37.9759 76.7297 34.603 81.7243C45.1435 77.3742 54.1381 80.4756 58.2138 82.9729C51.1867 82.9729 37.1327 88.3837 37.1327 102.951C37.1327 110.301 39.7007 114.835 44.9417 118.52V152.457C22.8823 143.451 4.07042 129.034 4.92896 102.951C5.98808 70.7742 35.446 53.1276 66.646 53.1276C71.2839 53.1276 72.9184 53.1423 75.5001 53.4216C76.6244 51.6179 81.9941 48.0107 92.7876 48.0107C106.176 48.0107 118.32 63.9962 124.685 72.3754M150.127 88.3837C146.614 88.3837 139.334 88.3837 138.322 88.3837M150.127 88.3837H138.322M5.407 200.762C13.8054 217.94 34.1655 240.719 71.7055 240.719C128.203 240.719 136.214 204.508 136.214 191.189C136.214 177.871 136.214 157.893 96.1635 139.996M5.407 200.762L5.34867 200.643M5.407 200.762C5.38788 200.723 5.36843 200.683 5.34867 200.643M5.34867 200.643C3.3567 196.57 -1.81729 185.99 2.98133 182.254C6.25067 179.708 10.8966 184.743 13.9042 188.002C14.6413 188.801 15.2799 189.493 15.7758 189.94C26.4842 199.61 46.7902 212.416 71.7055 212.416C93.9671 212.416 100.657 198.265 101.219 191.189C102.35 184.488 100.173 179.135 96.1635 174.798V139.996M80.1381 88.7999C80.1381 86.9017 81.7969 86.1753 83.9326 86.2417C87.7919 86.3616 93.2083 89.07 93.2083 92.1297C93.2083 98.9887 80.1381 94.2482 80.1381 88.7999Z" stroke="#F6FAFA" stroke-width="2"/>
</svg>
