<svg width="21" height="21" viewBox="0 0 21 21" fill="none" xmlns="http://www.w3.org/2000/svg">
<g clip-path="url(#clip0_91_4737)">
<path d="M1.70292 6.05757C1.42388 6.1373 1.1705 6.28851 0.967843 6.49623C0.765187 6.70395 0.62028 6.96098 0.547462 7.2419C0.474644 7.52282 0.476438 7.81788 0.552666 8.09789C0.628895 8.37791 0.776917 8.63316 0.982084 8.8384L3.82542 11.6784V17.1667H9.31958L12.1821 20.0251C12.3357 20.18 12.5185 20.3031 12.7198 20.3872C12.9212 20.4713 13.1372 20.5147 13.3554 20.5151C13.4988 20.5148 13.6416 20.4963 13.7804 20.4601C14.0612 20.3893 14.3184 20.2459 14.5262 20.0441C14.7339 19.8424 14.8848 19.5895 14.9638 19.3109L20.4921 0.517578L1.70292 6.05757ZM2.16625 7.66007L16.3563 3.47674L5.49375 14.3217V10.9884L2.16625 7.66007ZM13.3663 18.8467L10.0104 15.5001H6.67708L17.5379 4.64841L13.3663 18.8467Z" fill="#0E2B4C"/>
</g>
<defs>
<clipPath id="clip0_91_4737">
<rect width="20" height="20" fill="white" transform="translate(0.5 0.5)"/>
</clipPath>
</defs>
</svg>
