<svg width="20" height="20" viewBox="0 0 20 20" fill="none" xmlns="http://www.w3.org/2000/svg">
<g clip-path="url(#clip0_1_6204)">
<path d="M11.5369 14.3894L8.81857 17.1077C8.02934 17.8758 6.96942 18.3023 5.86811 18.295C4.76681 18.2876 3.7127 17.8469 2.93383 17.0683C2.15497 16.2896 1.71398 15.2356 1.70629 14.1343C1.6986 13.033 2.12482 11.973 2.89274 11.1835L5.61107 8.4627C5.76733 8.30634 5.85507 8.0943 5.85499 7.87324C5.85491 7.65219 5.76702 7.44021 5.61066 7.28396C5.45429 7.1277 5.24225 7.03996 5.0212 7.04004C4.80014 7.04012 4.58816 7.12801 4.43191 7.28437L1.71441 10.0052C0.6163 11.1039 -0.000390527 12.5937 1.85542e-07 14.1471C0.000390898 15.7004 0.617831 17.19 1.71649 18.2881C2.81515 19.3862 4.30503 20.0029 5.85838 20.0025C7.41173 20.0021 8.9013 19.3847 9.99941 18.286L12.7177 15.5677C12.8695 15.4105 12.9535 15.2 12.9516 14.9815C12.9497 14.763 12.8621 14.554 12.7076 14.3995C12.5531 14.245 12.3441 14.1574 12.1256 14.1555C11.9071 14.1536 11.6966 14.2376 11.5394 14.3894H11.5369Z" fill="#596D7F"/>
<path d="M18.2867 1.71752C17.7445 1.17153 17.0992 0.738586 16.3884 0.443767C15.6776 0.148948 14.9154 -0.00188038 14.1459 2.0534e-05C13.3768 -0.00202257 12.6149 0.148419 11.9043 0.442647C11.1937 0.736874 10.5484 1.16905 10.0059 1.71419L7.2834 4.43335C7.12703 4.58961 7.03914 4.80158 7.03906 5.02264C7.03898 5.2437 7.12672 5.45574 7.28298 5.6121C7.43924 5.76847 7.65121 5.85636 7.87227 5.85644C8.09333 5.85652 8.30536 5.76878 8.46173 5.61252L11.1826 2.89419C11.5705 2.50389 12.0321 2.19444 12.5404 1.98374C13.0488 1.77303 13.5939 1.66527 14.1442 1.66669C14.9728 1.66696 15.7827 1.91288 16.4715 2.37335C17.1603 2.83383 17.6971 3.48818 18.0141 4.2537C18.3311 5.01922 18.414 5.86154 18.2523 6.67417C18.0907 7.4868 17.6917 8.23326 17.1059 8.81919L14.3876 11.5375C14.2312 11.6939 14.1434 11.906 14.1434 12.1271C14.1434 12.3482 14.2312 12.5603 14.3876 12.7167C14.5439 12.8731 14.756 12.9609 14.9771 12.9609C15.1983 12.9609 15.4104 12.8731 15.5667 12.7167L18.2851 10C19.3818 8.90093 19.9978 7.41177 19.9981 5.85912C19.9985 4.30646 19.383 2.81705 18.2867 1.71752Z" fill="#596D7F"/>
<path d="M11.9107 6.91068L6.91066 11.9107C6.83107 11.9875 6.76758 12.0795 6.72391 12.1812C6.68023 12.2828 6.65724 12.3922 6.65628 12.5028C6.65532 12.6135 6.6764 12.7232 6.71831 12.8256C6.76021 12.928 6.82208 13.0211 6.90033 13.0993C6.97857 13.1776 7.07161 13.2395 7.17403 13.2814C7.27644 13.3233 7.38617 13.3443 7.49682 13.3434C7.60747 13.3424 7.71682 13.3194 7.81849 13.2758C7.92016 13.2321 8.01212 13.1686 8.08899 13.089L13.089 8.08901C13.2408 7.93185 13.3248 7.72135 13.3229 7.50285C13.321 7.28435 13.2333 7.07534 13.0788 6.92083C12.9243 6.76633 12.7153 6.67869 12.4968 6.67679C12.2783 6.67489 12.0678 6.75889 11.9107 6.91068Z" fill="#596D7F"/>
</g>
<defs>
<clipPath id="clip0_1_6204">
<rect width="20" height="20" fill="white"/>
</clipPath>
</defs>
</svg>
