<svg width="30" height="30" viewBox="0 0 30 30" fill="none" xmlns="http://www.w3.org/2000/svg">
<path d="M13.623 1.91028C12.2578 2.09778 11.291 2.33216 10.3125 2.71302C8.51367 3.41028 7.08398 4.33606 5.71289 5.71302C3.7207 7.69934 2.54297 9.9845 2.01562 12.8615C1.85742 13.7052 1.85742 16.295 2.01562 17.1388C2.42578 19.3712 3.2168 21.2052 4.5293 22.963C5.06836 23.6837 6.31641 24.9318 7.03711 25.4708C8.9707 26.9181 11.168 27.797 13.5293 28.0665C14.3496 28.1661 16.4297 28.1134 17.168 27.9786C19.3535 27.5861 21.2168 26.7775 22.9629 25.4708C23.6836 24.9318 24.9316 23.6837 25.4707 22.963C26.7832 21.2052 27.5742 19.3712 27.9844 17.1388C28.1426 16.295 28.1426 13.7052 27.9844 12.8615C27.5742 10.629 26.7832 8.79505 25.4707 7.03724C24.9316 6.31653 23.6836 5.06849 22.9629 4.52942C21.2168 3.22278 19.3652 2.42005 17.168 2.02161C16.7637 1.94544 16.2246 1.91614 15.2051 1.90442C14.4316 1.8927 13.7227 1.89856 13.623 1.91028ZM16.582 3.90247C21.4922 4.61145 25.3828 8.50208 26.0977 13.4005C26.2207 14.256 26.2207 15.7443 26.0977 16.5997C25.4531 21.0294 22.1719 24.7032 17.8477 25.84C17.4902 25.9337 16.9219 26.0509 16.5879 26.1036C15.7793 26.2267 14.291 26.2267 13.418 26.0978C10.0605 25.6115 7.10742 23.6251 5.32617 20.6544C4.65234 19.5236 4.10156 17.965 3.90234 16.5997C3.7793 15.7443 3.7793 14.256 3.90234 13.4005C4.66406 8.17981 9.07031 4.11341 14.2969 3.82044C15.1758 3.7677 15.8203 3.79114 16.582 3.90247Z" fill="#58C19B"/>
<path d="M14.1152 6.43945C13.5996 6.60352 13.2129 6.84375 12.8379 7.23047C12.2637 7.83398 12.0117 8.47266 12.0117 9.32227C12.0117 11.0098 13.3125 12.3047 15 12.3047C15.791 12.3047 16.4355 12.0586 17.0098 11.543C18.0234 10.6348 18.2871 9.13477 17.6543 7.88086C17.3262 7.24219 16.5762 6.64453 15.8262 6.42188C15.3926 6.29297 14.543 6.30469 14.1152 6.43945ZM15.457 8.34375C16.1777 8.71875 16.2656 9.65039 15.627 10.1602C15.3398 10.3887 14.8418 10.4355 14.5313 10.2656C13.7637 9.84375 13.7461 8.83008 14.502 8.37305C14.7129 8.23828 15.2285 8.22656 15.457 8.34375Z" fill="#58C19B"/>
<path d="M12.4571 13.7285C11.8594 14.0684 11.8536 14.9414 12.4395 15.375C12.586 15.4805 12.7032 15.498 13.336 15.5156L14.0625 15.5391V18.668V21.7969H13.3477C12.7325 21.7969 12.5977 21.8145 12.4336 21.9141C12.1524 22.0898 12.0118 22.3535 12.0118 22.7344C12.0118 23.1152 12.1524 23.3789 12.4336 23.5547C12.6211 23.666 12.7325 23.6719 15 23.6719C17.2676 23.6719 17.379 23.666 17.5665 23.5547C17.8477 23.3789 17.9883 23.1152 17.9883 22.7344C17.9883 22.3535 17.8477 22.0898 17.5665 21.9141C17.4024 21.8145 17.2676 21.7969 16.6582 21.7969H15.9375V18.668V15.5391L16.6641 15.5156C17.4727 15.498 17.5899 15.4512 17.8594 15.0586C18.1407 14.6484 17.9707 13.9688 17.5196 13.7168C17.3028 13.5996 17.2325 13.5938 14.9942 13.5938C12.7149 13.5938 12.6856 13.5996 12.4571 13.7285Z" fill="#58C19B"/>
</svg>
