<svg width="30" height="30" viewBox="0 0 30 30" fill="none" xmlns="http://www.w3.org/2000/svg">
<path d="M19.1367 1.96924C18.0293 2.16846 16.8164 2.70166 15.9258 3.37549C15.6152 3.604 13.2422 5.94189 9.45703 9.73877C3.12891 16.0786 3.17578 16.0259 2.64258 17.0981C2.37891 17.6196 2.07422 18.5688 1.96289 19.1841C1.8457 19.8579 1.8457 21.1587 1.96289 21.8325C2.37305 24.188 3.9375 26.2915 6.08203 27.3579C6.60352 27.6216 7.55273 27.9263 8.16797 28.0376C8.83594 28.1489 10.0664 28.1489 10.7812 28.0376C11.9355 27.8501 13.1426 27.3286 14.0742 26.6255C14.3848 26.397 16.7578 24.0591 20.543 20.2622C25.6289 15.1646 26.5723 14.1919 26.8477 13.77C27.2812 13.1021 27.5039 12.6509 27.7441 11.936C28.0195 11.104 28.125 10.4419 28.125 9.49268C28.125 7.88135 27.7266 6.55127 26.8535 5.22705C25.7461 3.54541 23.8477 2.31494 21.832 1.96338C21.1816 1.85205 19.7695 1.85205 19.1367 1.96924ZM21.6035 3.89111C22.7695 4.13721 23.707 4.65283 24.5508 5.5083C25.2012 6.15869 25.5762 6.75049 25.8633 7.56494C26.1387 8.32666 26.2148 8.87158 26.1738 9.76807C26.127 10.9399 25.7578 12.0063 25.084 12.8911C24.9199 13.1021 23.6484 14.4146 22.2539 15.8032L19.7168 18.3403L15.6855 14.3091L11.6602 10.2837L14.3379 7.61182C16.6523 5.30322 17.0859 4.89893 17.5137 4.64111C18.0469 4.31885 18.7441 4.0376 19.377 3.90283C19.9043 3.7915 21.0938 3.78564 21.6035 3.89111ZM15.6621 22.3892C13.3418 24.6978 12.9141 25.1021 12.4863 25.3599C11.5664 25.9224 10.5879 26.1919 9.48633 26.1919C7.92773 26.1919 6.58008 25.6353 5.47266 24.5278C4.35938 23.4146 3.80859 22.0786 3.80859 20.5083C3.80859 19.4126 4.08398 18.4282 4.64062 17.5142C4.89844 17.0864 5.30273 16.6528 7.61133 14.3384L10.2832 11.6606L14.3086 15.686L18.3398 19.7173L15.6621 22.3892Z" fill="#58C19B"/>
<path d="M9.81426 14.1504C9.63262 14.2148 9.15215 14.6602 7.76348 16.0664C5.79473 18.0527 5.64238 18.252 5.34941 19.1309C5.12676 19.8105 5.0916 20.8711 5.26738 21.5684C5.41973 22.1836 5.71269 22.7754 6.07598 23.2324C6.47441 23.7246 6.67949 23.8477 7.08379 23.8477C7.67559 23.8477 8.02715 23.502 8.02715 22.9219C8.02715 22.5645 7.97441 22.4473 7.6873 22.125C7.57598 22.002 7.40605 21.7266 7.30059 21.5098C7.13066 21.1523 7.11894 21.0762 7.11894 20.5078C7.11894 19.9336 7.13066 19.8633 7.3123 19.4824C7.48809 19.1133 7.67559 18.9082 9.25176 17.3145C11.115 15.4395 11.1912 15.3457 11.1033 14.8945C10.9861 14.2734 10.4002 13.9336 9.81426 14.1504Z" fill="#58C19B"/>
</svg>
