<svg width="30" height="30" viewBox="0 0 30 30" fill="none" xmlns="http://www.w3.org/2000/svg">
<g clip-path="url(#clip0_1_1160)">
<path d="M18.3809 0.0878906C18.0938 0.193359 17.6484 0.521484 17.4844 0.744141C17.1973 1.13672 17.1035 1.42383 16.916 2.53125L16.7227 3.65039L16.3477 3.77344C15.8027 3.94922 15.4805 4.16016 15.0703 4.59375C14.8242 4.86328 14.7012 4.95703 14.666 4.9043C14.6426 4.86914 14.3379 4.30664 13.998 3.66211C13.4883 2.69531 13.3359 2.45508 13.1309 2.30273C12.123 1.5293 9.89648 2.00391 7.67578 3.45703C6.91992 3.95508 6.12305 4.75781 5.85938 5.29688C5.68945 5.64258 5.66016 5.76562 5.66016 6.11719C5.66016 6.52148 5.67188 6.55078 6.14062 7.45312L6.62109 8.36719L5.68945 8.39062C4.85156 8.4082 4.74023 8.41992 4.58789 8.53125C4.27148 8.76562 4.16016 9 4.16016 9.42773C4.16016 9.85547 5.42578 28.8281 5.47852 29.2207C5.51953 29.4961 5.72461 29.7832 5.98242 29.9121C6.22852 30.041 23.7715 30.041 24.0176 29.9121C24.2754 29.7832 24.4805 29.4961 24.5215 29.2207C24.5742 28.834 25.8398 9.86133 25.8398 9.42773C25.8398 9 25.7285 8.76562 25.4121 8.53125C25.2598 8.41992 25.1543 8.4082 24.1934 8.39062C23.6191 8.37891 23.1445 8.36133 23.1445 8.34375C23.1445 8.33203 23.1855 8.04492 23.2383 7.70508C23.3496 6.92578 23.291 6.42773 22.998 5.81836C22.8047 5.40234 22.3535 4.88086 21.9492 4.59375L21.7734 4.47656L21.9316 3.50977C22.125 2.34961 22.1309 1.88086 21.9668 1.44141C21.8203 1.04297 21.4336 0.603516 21.041 0.386719C20.4375 0.0585938 18.9199 -0.111328 18.3809 0.0878906ZM20.0859 2.08008C20.1914 2.12109 20.1738 2.30273 19.9277 3.79688C19.6992 5.15625 19.6934 5.36133 19.8516 5.66602C19.9512 5.85352 20.2148 6.01758 20.5312 6.09961C20.8887 6.1875 21.2344 6.50391 21.3223 6.82617C21.3809 7.04297 21.3223 7.59961 21.1816 8.24414L21.1523 8.37891H18.5449C16.1836 8.37891 15.9375 8.36719 15.9375 8.28516C15.9375 8.12109 16.2305 6.42773 16.2949 6.23438C16.3594 6.02344 16.6641 5.71289 16.8926 5.63086C16.9863 5.5957 17.2324 5.56641 17.4434 5.56641C17.8887 5.56641 18.1992 5.42578 18.3691 5.13867C18.4336 5.02734 18.5684 4.41211 18.7266 3.46875C18.8672 2.64258 19.0078 1.95703 19.043 1.93359C19.1016 1.89844 19.9043 2.00977 20.0859 2.08008ZM11.127 4.01953C11.0215 4.14844 10.418 4.57031 9.97852 4.82812C9.31055 5.2207 7.98047 5.73047 8.14453 5.53711C8.2793 5.37305 9.24023 4.75781 9.76758 4.48828C10.1895 4.27734 11.0508 3.9375 11.1855 3.92578C11.1973 3.92578 11.1738 3.9668 11.127 4.01953ZM13.3242 6.55664C13.9805 7.79883 14.0449 7.96289 13.9688 8.25L13.9336 8.37891L11.3789 8.36719L8.82422 8.34961L8.60742 7.94531L8.38477 7.53516L8.77734 7.43555C9.9082 7.14844 11.543 6.28125 12.334 5.54883C12.498 5.40234 12.6328 5.2793 12.6387 5.27344C12.6387 5.27344 12.9492 5.85352 13.3242 6.55664ZM23.8477 10.4531C23.8477 10.5293 23.584 14.502 23.2617 19.2832C22.9395 24.0645 22.6758 28.0137 22.6758 28.0488C22.6758 28.1074 21.0996 28.125 15 28.125C8.90039 28.125 7.32422 28.1074 7.32422 28.0488C7.32422 28.0137 7.06055 24.0645 6.73828 19.2773C6.41602 14.4961 6.15234 10.5234 6.15234 10.4473V10.3125H15H23.8477V10.4531Z" fill="#58C19B"/>
<path d="M14.5724 14.0864C14.1388 14.2446 13.9103 14.4497 13.5997 14.9653C13.1427 15.7211 13.0489 15.9614 13.0958 16.2719C13.1192 16.4536 13.1954 16.6001 13.3419 16.7641C13.8048 17.2739 14.5372 17.1801 14.9239 16.559L15.088 16.3012L15.9669 17.8247C16.5118 18.768 16.9103 19.3891 17.0099 19.4653C17.6896 19.9575 18.6681 19.395 18.5567 18.5805C18.5392 18.4399 18.1876 17.7661 17.6075 16.7524C16.4708 14.7778 16.2775 14.479 16.0255 14.3032C15.5978 14.0102 15.0235 13.9282 14.5724 14.0864Z" fill="#58C19B"/>
<path d="M12.2753 17.6364C12.1757 17.6657 12.0175 17.7771 11.9179 17.8825C11.7304 18.0818 9.94329 21.1521 9.71477 21.6618C9.52727 22.0778 9.54485 22.57 9.74993 22.9861C10.0546 23.613 10.4882 23.8474 11.4316 23.8943C12.1933 23.9294 12.5507 23.8532 12.8144 23.6013C13.289 23.1443 13.1777 22.3591 12.5917 22.0603C12.5038 22.0134 12.2812 21.9724 12.0995 21.9724C11.9238 21.9724 11.7773 21.9607 11.7773 21.9489C11.7773 21.9314 12.164 21.2575 12.6386 20.4372C13.4413 19.0544 13.4999 18.9314 13.5234 18.6032C13.5409 18.3044 13.5234 18.2224 13.4062 18.0525C13.3359 17.9411 13.207 17.8064 13.1249 17.7419C12.9492 17.613 12.5214 17.5603 12.2753 17.6364Z" fill="#58C19B"/>
<path d="M18.3928 20.2324C17.9181 20.5488 17.801 21.0645 18.0705 21.5801L18.217 21.8496L16.3771 21.8672C14.6193 21.8848 14.5314 21.8906 14.3732 22.0078C13.7638 22.459 13.799 23.3906 14.4318 23.6953C14.6135 23.7773 14.924 23.7891 16.8869 23.7891C19.4299 23.7891 19.4885 23.7832 19.922 23.3672C20.2619 23.0391 20.4084 22.6875 20.4084 22.1895C20.4084 21.8496 20.3791 21.7383 20.1916 21.3691C19.8459 20.7012 19.5588 20.3145 19.3361 20.2031C19.0431 20.0566 18.6388 20.0684 18.3928 20.2324Z" fill="#58C19B"/>
</g>
<defs>
<clipPath id="clip0_1_1160">
<rect width="30" height="30" fill="white"/>
</clipPath>
</defs>
</svg>
