<svg width="30" height="30" viewBox="0 0 30 30" fill="none" xmlns="http://www.w3.org/2000/svg">
<path d="M18.8965 1.99797C18.5332 2.19133 18.4395 2.2968 18.0762 2.97649C17.3965 4.23625 17.1797 4.45305 15.9961 5.09172C15.627 5.2968 15.2578 5.51945 15.1816 5.58391C14.9707 5.77727 14.7656 6.25773 14.7656 6.56242C14.7656 7.27727 15.0059 7.56438 16.1191 8.17961C17.1328 8.74211 17.4023 9.00578 17.9531 10.0077C18.1699 10.4062 18.416 10.8046 18.498 10.9042C18.9785 11.4726 19.9688 11.5019 20.502 10.957C20.6191 10.8398 20.9004 10.4003 21.123 9.9843C21.6621 8.9882 21.9316 8.72453 22.998 8.14445C23.8945 7.65813 24.0938 7.47063 24.2344 6.97844C24.3926 6.45109 24.2051 5.8593 23.7656 5.50188C23.707 5.455 23.3379 5.24406 22.9453 5.03313C21.9961 4.52922 21.6152 4.14836 21.0996 3.19914C20.6719 2.40227 20.4551 2.13274 20.127 1.98625C19.793 1.83391 19.2012 1.83977 18.8965 1.99797ZM20.4727 5.66008C20.7363 5.91789 21.1289 6.24016 21.3457 6.36906L21.7441 6.60344L21.4629 6.7675C20.748 7.18352 20.2207 7.69914 19.7578 8.4257L19.5293 8.8007L19.3008 8.43156C18.9961 7.92766 18.3516 7.25969 17.8477 6.93156C17.6191 6.78508 17.4082 6.64445 17.3848 6.62102C17.3555 6.59758 17.4785 6.49797 17.6484 6.40422C18.3047 6.02922 18.9551 5.37883 19.3652 4.66984L19.5293 4.38859L19.7637 4.78703C19.8926 5.00383 20.2148 5.39641 20.4727 5.66008Z" fill="#58C19B"/>
<path d="M11.2676 6.52734C10.7578 6.69727 10.2832 7.11328 10.0723 7.58203C9.9375 7.88672 9.84375 8.64258 9.84375 9.4043C9.84375 9.97266 9.83203 10.0137 9.62109 10.4648C9.32812 11.0625 8.81836 11.7305 8.12109 12.416L7.56445 12.9668L7.40625 12.7734C6.98437 12.2754 6.1875 12.334 5.84766 12.8789L5.71289 13.0957L5.69531 20.2148L5.68359 27.334L5.8125 27.5977C6 27.9668 6.25781 28.125 6.67969 28.125C7.24805 28.125 7.61719 27.75 7.61719 27.1758V26.9004L12.1465 26.877C16.6172 26.8594 16.6758 26.8594 17.168 26.7305C17.7949 26.5605 18.7266 26.1152 19.2012 25.7578C19.6875 25.3887 20.2793 24.7441 20.5898 24.2344C20.8945 23.7422 23.2793 18.4395 23.3848 18.0293C23.4258 17.8594 23.4434 17.5195 23.4258 17.1621C23.3965 16.623 23.3789 16.541 23.1562 16.0898C22.752 15.2754 21.9961 14.6953 21.1289 14.5371C20.9062 14.4961 19.5879 14.4727 17.4434 14.4727C14.291 14.4727 14.1094 14.4668 14.1504 14.3672C14.3613 13.875 14.6719 12.8965 14.7715 12.4043C14.877 11.9238 14.9004 11.5957 14.9062 10.7227C14.9121 9.63867 14.9121 9.63867 14.7305 9.19336C14.3613 8.2793 13.3535 7.02539 12.7207 6.68555C12.293 6.45703 11.6777 6.39258 11.2676 6.52734ZM12.8086 9.69141C12.9902 10.0605 13.0078 10.1367 13.0078 10.6289C13.0078 11.7598 12.8262 12.4863 12.1055 14.209C11.8887 14.7246 11.7012 15.252 11.6836 15.3809C11.6484 15.6621 11.8359 16.0723 12.0879 16.2539C12.252 16.377 12.3281 16.377 16.541 16.4062C21.252 16.4355 21.0293 16.418 21.3223 16.793C21.5391 17.0684 21.5801 17.3555 21.457 17.6777C21.2695 18.1465 19.2832 22.5586 19.0547 22.998C18.7383 23.6074 18.0937 24.2285 17.4609 24.5391C16.5937 24.9609 16.5937 24.9609 11.8359 24.9609H7.61719V20.4023V15.8438L7.95117 15.4336C8.13281 15.2109 8.77734 14.5254 9.375 13.916C10.541 12.7266 11.0508 12.0527 11.4609 11.1621C11.7012 10.6465 11.7715 10.2363 11.7773 9.43359C11.7773 9.12891 11.7949 8.7832 11.8125 8.66016L11.8477 8.44922L12.2285 8.86523C12.4336 9.09961 12.6973 9.46875 12.8086 9.69141Z" fill="#58C19B"/>
</svg>
